<svg xmlns="http://www.w3.org/2000/svg" viewBox="0 0 7 7"><rect x="0.2500" y="0.2500" width="0.5000" height="0.5000" rx="0.1450" fill="#17181a"/><rect x="1.2185" y="0.2185" width="0.5631" height="0.5631" rx="0.1633" fill="#17181a"/><rect x="2.1965" y="0.1965" width="0.6070" height="0.6070" rx="0.1760" fill="#17181a"/><rect x="3.1885" y="0.1885" width="0.6230" height="0.6230" rx="0.1807" fill="#17181a"/><rect x="4.1965" y="0.1965" width="0.6070" height="0.6070" rx="0.1760" fill="#17181a"/><rect x="5.2185" y="0.2185" width="0.5631" height="0.5631" rx="0.1633" fill="#17181a"/><rect x="6.2500" y="0.2500" width="0.5000" height="0.5000" rx="0.1450" fill="#17181a"/><rect x="0.2185" y="1.2185" width="0.5631" height="0.5631" rx="0.1633" fill="#17181a"/><rect x="1.1800" y="1.1800" width="0.6400" height="0.6400" rx="0.1856" fill="#17181a"/><rect x="2.1507" y="1.1507" width="0.6986" height="0.6986" rx="0.2026" fill="#17181a"/><rect x="3.1390" y="1.1390" width="0.7220" height="0.7220" rx="0.2094" fill="#17181a"/><rect x="4.1507" y="1.1507" width="0.6986" height="0.6986" rx="0.2026" fill="#17181a"/><rect x="5.1800" y="1.1800" width="0.6400" height="0.6400" rx="0.1856" fill="#17181a"/><rect x="6.2185" y="1.2185" width="0.5631" height="0.5631" rx="0.1633" fill="#17181a"/><rect x="0.1965" y="2.1965" width="0.6070" height="0.6070" rx="0.1760" fill="#17181a"/><rect x="1.1507" y="2.1507" width="0.6986" height="0.6986" rx="0.2026" fill="#17181a"/><rect x="2.1100" y="2.1100" width="0.7800" height="0.7800" rx="0.2262" fill="#17181a"/><rect x="3.0895" y="2.0895" width="0.8210" height="0.8210" rx="0.2381" fill="#17181a"/><rect x="4.1100" y="2.1100" width="0.7800" height="0.7800" rx="0.2262" fill="#17181a"/><rect x="5.1507" y="2.1507" width="0.6986" height="0.6986" rx="0.2026" fill="#17181a"/><rect x="6.1965" y="2.1965" width="0.6070" height="0.6070" rx="0.1760" fill="#17181a"/><rect x="0.1885" y="3.1885" width="0.6230" height="0.6230" rx="0.1807" fill="#17181a"/><rect x="1.1390" y="3.1390" width="0.7220" height="0.7220" rx="0.2094" fill="#17181a"/><rect x="2.0895" y="3.0895" width="0.8210" height="0.8210" rx="0.2381" fill="#17181a"/><rect x="3.0400" y="3.0400" width="0.9200" height="0.9200" rx="0.2668" fill="#17181a"/><rect x="4.0895" y="3.0895" width="0.8210" height="0.8210" rx="0.2381" fill="#17181a"/><rect x="5.1390" y="3.1390" width="0.7220" height="0.7220" rx="0.2094" fill="#17181a"/><rect x="6.1885" y="3.1885" width="0.6230" height="0.6230" rx="0.1807" fill="#17181a"/><rect x="0.1965" y="4.1965" width="0.6070" height="0.6070" rx="0.1760" fill="#17181a"/><rect x="1.1507" y="4.1507" width="0.6986" height="0.6986" rx="0.2026" fill="#17181a"/><rect x="2.1100" y="4.1100" width="0.7800" height="0.7800" rx="0.2262" fill="#17181a"/><rect x="3.0895" y="4.0895" width="0.8210" height="0.8210" rx="0.2381" fill="#17181a"/><rect x="4.1100" y="4.1100" width="0.7800" height="0.7800" rx="0.2262" fill="#17181a"/><rect x="5.1507" y="4.1507" width="0.6986" height="0.6986" rx="0.2026" fill="#17181a"/><rect x="6.1965" y="4.1965" width="0.6070" height="0.6070" rx="0.1760" fill="#17181a"/><rect x="0.2185" y="5.2185" width="0.5631" height="0.5631" rx="0.1633" fill="#17181a"/><rect x="1.1800" y="5.1800" width="0.6400" height="0.6400" rx="0.1856" fill="#17181a"/><rect x="2.1507" y="5.1507" width="0.6986" height="0.6986" rx="0.2026" fill="#17181a"/><rect x="3.1390" y="5.1390" width="0.7220" height="0.7220" rx="0.2094" fill="#17181a"/><rect x="4.1507" y="5.1507" width="0.6986" height="0.6986" rx="0.2026" fill="#17181a"/><rect x="5.1800" y="5.1800" width="0.6400" height="0.6400" rx="0.1856" fill="#17181a"/><rect x="6.2185" y="5.2185" width="0.5631" height="0.5631" rx="0.1633" fill="#17181a"/><rect x="0.2500" y="6.2500" width="0.5000" height="0.5000" rx="0.1450" fill="#17181a"/><rect x="1.2185" y="6.2185" width="0.5631" height="0.5631" rx="0.1633" fill="#17181a"/><rect x="2.1965" y="6.1965" width="0.6070" height="0.6070" rx="0.1760" fill="#17181a"/><rect x="3.1885" y="6.1885" width="0.6230" height="0.6230" rx="0.1807" fill="#17181a"/><rect x="4.1965" y="6.1965" width="0.6070" height="0.6070" rx="0.1760" fill="#17181a"/><rect x="5.2185" y="6.2185" width="0.5631" height="0.5631" rx="0.1633" fill="#17181a"/><rect x="6.2500" y="6.2500" width="0.5000" height="0.5000" rx="0.1450" fill="#17181a"/></svg>