<svg width="232" height="48" viewBox="0 0 232 48" fill="none" xmlns="http://www.w3.org/2000/svg">
<g clip-path="url(#clip0_122_1710)">
<path d="M24 0C10.7666 0 0 10.7666 0 24C0 37.2334 10.7666 48 24 48C37.2334 48 48 37.2334 48 24C48 10.7666 37.2334 0 24 0ZM24 2.27766C27.5422 2.27766 30.7331 6.29117 32.5923 12.2333C29.9351 11.715 27.0439 11.4294 24 11.4294C20.9561 11.4294 18.0649 11.7138 15.4077 12.2333C17.2669 6.29117 20.4578 2.27766 24 2.27766ZM30.6003 27.4517C30.7648 26.3587 30.8541 25.2023 30.8541 24C30.8541 22.7977 30.7648 21.6412 30.6003 20.5483C32.9108 21.4509 34.2918 22.7648 34.2918 24C34.2918 25.2352 32.9108 26.5491 30.6003 27.4517ZM33.1153 28.761C32.141 30.6179 30.6191 32.141 28.761 33.1153C29.2687 32.2233 29.7024 31.1891 30.0385 30.0385C31.1891 29.7024 32.2233 29.2687 33.1153 28.761ZM30.0385 17.9615C29.7024 16.8109 29.2699 15.7767 28.761 14.8847C30.6179 15.859 32.141 17.3809 33.1153 19.239C32.2233 18.7313 31.1891 18.2988 30.0385 17.9615ZM24 28.5765C22.4839 28.5765 21.083 28.426 19.8337 28.1663C19.574 26.917 19.4235 25.5173 19.4235 24.0012C19.4235 22.4851 19.574 21.0842 19.8337 19.8349C21.083 19.5751 22.4839 19.4247 24 19.4247C25.5161 19.4247 26.917 19.5751 28.1651 19.8349C28.4249 21.0842 28.5753 22.4851 28.5753 24.0012C28.5753 25.5173 28.4249 26.9182 28.1651 28.1663C26.9158 28.426 25.5161 28.5765 24 28.5765ZM27.4517 30.6003C26.5503 32.9108 25.2352 34.2918 24 34.2918C22.7648 34.2918 21.4497 32.9108 20.5483 30.6003C21.6424 30.7648 22.7977 30.8541 24 30.8541C25.2023 30.8541 26.3587 30.7648 27.4517 30.6003ZM20.5483 17.3997C21.4509 15.0892 22.7648 13.7082 24 13.7082C25.2352 13.7082 26.5491 15.0892 27.4517 17.3997C26.3587 17.2352 25.2023 17.1459 24 17.1459C22.7977 17.1459 21.6412 17.2352 20.5483 17.3997ZM17.3997 27.4517C15.0892 26.5503 13.7082 25.2352 13.7082 24C13.7082 22.7648 15.0892 21.4497 17.3997 20.5483C17.2352 21.6412 17.1459 22.7977 17.1459 24C17.1459 25.2023 17.2352 26.3576 17.3997 27.4517ZM17.9615 30.0385C18.2976 31.1891 18.7301 32.2233 19.239 33.1153C17.3821 32.141 15.859 30.6191 14.8847 28.761C15.7767 29.2687 16.8109 29.7024 17.9615 30.0385ZM17.9615 17.9615C16.8109 18.2976 15.7767 18.7301 14.8847 19.239C15.859 17.3821 17.3809 15.859 19.239 14.8847C18.7313 15.7767 18.2976 16.8109 17.9615 17.9615ZM17.6078 3.23902C15.5699 5.49552 13.9127 8.81446 12.8303 12.8303C8.81445 13.9127 5.49552 15.5699 3.23902 17.6078C5.35096 10.7619 10.7619 5.35096 17.6078 3.23902ZM12.2333 15.4077C11.715 18.0649 11.4294 20.9572 11.4294 24C11.4294 27.0427 11.7138 29.9351 12.2333 32.5923C6.29117 30.7331 2.27765 27.5422 2.27765 24C2.27765 20.4578 6.29117 17.2669 12.2333 15.4077ZM3.23902 30.3911C5.49552 32.429 8.81445 34.0861 12.8303 35.1685C13.9127 39.1844 15.5699 42.5033 17.6078 44.7598C10.7619 42.6479 5.35096 37.237 3.23902 30.3911ZM24 45.7212C20.4578 45.7212 17.2669 41.7077 15.4077 35.7655C18.0649 36.2838 20.9561 36.5694 24 36.5694C27.0439 36.5694 29.9351 36.285 32.5923 35.7655C30.7331 41.7077 27.5422 45.7212 24 45.7212ZM30.3911 44.761C32.429 42.5045 34.0861 39.1855 35.1685 35.1697C39.1844 34.0873 42.5033 32.4301 44.7598 30.3922C42.6479 37.2381 37.237 42.649 30.3911 44.761ZM35.7655 32.5923C36.2838 29.9351 36.5694 27.0439 36.5694 24C36.5694 20.9561 36.285 18.0649 35.7655 15.4077C41.7076 17.2669 45.7212 20.4578 45.7212 24C45.7212 27.5422 41.7076 30.7331 35.7655 32.5923ZM35.1697 12.8303C34.0873 8.81446 32.4301 5.49552 30.3922 3.23902C37.2381 5.35096 42.649 10.7619 44.761 17.6078C42.5045 15.5699 39.1855 13.9127 35.1697 12.8303Z" fill="#FFFFFF"/>
<path d="M57.3008 16.1187H60.3471V17.5279C60.3471 17.9592 60.4998 18.1754 60.8042 18.1754C61.0322 18.1754 61.299 18.0226 61.6034 17.7183C62.7458 16.449 64.1032 15.8143 65.678 15.8143H67.468C68.5586 15.8143 69.5623 16.1317 70.4766 16.7663C71.391 17.4009 72.1079 18.2706 72.6285 19.3742C73.148 20.4789 73.4089 21.7165 73.4089 23.0868V35.3096H70.3626V23.3912C70.3626 21.995 70.0195 20.8397 69.3343 19.9266C68.6491 19.0122 67.7594 18.5562 66.6688 18.5562H65.1456C64.2066 18.5562 63.3745 18.8606 62.6517 19.4706C61.9278 20.0794 61.3625 20.8797 60.957 21.8693C60.5504 22.8588 60.3482 23.9001 60.3482 24.9919V35.3107H57.302V16.1187H57.3008Z" fill="#FFFFFF"/>
<path d="M78.9108 26.5703C78.7204 26.7866 78.6499 27.0839 78.7016 27.4647C78.9555 28.9632 79.4949 30.2442 80.3199 31.3102C81.145 32.3761 82.2168 32.9097 83.5378 32.9097H85.0233C86.1657 32.9097 87.1365 32.5477 87.9368 31.8249C88.736 31.101 89.2378 30.2066 89.4411 29.1406H92.3734C92.2465 30.3089 91.8528 31.3877 91.1935 32.3773C90.533 33.3669 89.6703 34.1543 88.6044 34.7384C87.5384 35.3225 86.3573 35.614 85.0633 35.614H83.5026C82.03 35.614 80.6714 35.1827 79.4279 34.3188C78.1833 33.4562 77.2067 32.2621 76.4956 30.739C75.7846 29.2159 75.4297 27.5023 75.4297 25.5984C75.4297 23.6945 75.8163 22.0327 76.5908 20.5342C77.3653 19.0369 78.3737 17.8758 79.6183 17.0496C80.8617 16.2245 82.1439 15.812 83.4638 15.812H85.0633C86.4842 15.812 87.7664 16.2245 88.9088 17.0496C90.0511 17.8746 90.9514 18.9723 91.6119 20.3438C92.2712 21.7142 92.6014 23.1868 92.6014 24.7604C92.6014 25.2435 92.5756 25.7383 92.525 26.246H79.7311C79.375 26.246 79.1024 26.3541 78.912 26.5692L78.9108 26.5703ZM79.0436 22.7437C79.0436 23.0234 79.1388 23.2385 79.3292 23.3913C79.5196 23.5441 79.7793 23.6193 80.1096 23.6193H88.2588C88.5879 23.6193 88.8547 23.537 89.058 23.3713C89.2613 23.2068 89.3624 22.9846 89.3624 22.7049C89.3624 22.578 89.3495 22.4769 89.3248 22.4005C89.0451 21.284 88.5186 20.3579 87.7441 19.621C86.9696 18.8853 86.074 18.5163 85.0598 18.5163H83.5742C82.6352 18.5163 81.7585 18.8536 80.9464 19.5258C80.1331 20.1993 79.5243 21.1312 79.1188 22.3241C79.0671 22.5275 79.0424 22.6673 79.0424 22.7425L79.0436 22.7437Z" fill="#FFFFFF"/>
<path d="M94.1602 16.1188H97.3204L100.9 29.0654C101.027 29.4462 101.205 29.6366 101.434 29.6366C101.712 29.6366 101.891 29.4462 101.967 29.0654L105.966 16.1188H109.05L112.971 29.0654C113.098 29.4462 113.276 29.6366 113.505 29.6366C113.606 29.6366 113.708 29.5861 113.809 29.4838C113.91 29.3828 113.987 29.2558 114.037 29.1031L117.655 16.1188H120.777L115.218 35.3108H112.096L108.06 22.2501C107.933 21.8446 107.743 21.6413 107.489 21.6413C107.261 21.6413 107.082 21.8317 106.955 22.2125L102.843 35.312H99.6827L94.1613 16.12L94.1602 16.1188Z" fill="#FFFFFF"/>
<path d="M135.163 9.64539V14.9764C135.163 15.3325 135.264 15.611 135.467 15.8143C135.671 16.0176 135.949 16.1187 136.305 16.1187H141.293V18.7466H136.305C135.949 18.7466 135.671 18.8489 135.467 19.051C135.264 19.2543 135.163 19.534 135.163 19.889V30.3229C135.163 31.8978 135.899 32.684 137.371 32.684H140.989V35.3119H136.762C135.213 35.3119 134.059 34.9252 133.298 34.1507C132.536 33.3762 132.155 32.1775 132.155 30.5521V19.8901C132.155 19.5352 132.053 19.2555 131.851 19.0522C131.648 18.8489 131.368 18.7478 131.013 18.7478H127.967V16.1199H131.013C131.368 16.1199 131.648 16.0188 131.851 15.8155C132.054 15.6122 132.155 15.3336 132.155 14.9775V11.3977L135.164 9.64656L135.163 9.64539Z" fill="#FFFFFF"/>
<path d="M145.443 8.65466H148.49V17.5267C148.49 17.958 148.642 18.1743 148.947 18.1743C149.175 18.1743 149.442 18.0215 149.746 17.7171C150.888 16.4478 152.246 15.8132 153.821 15.8132H155.611C156.701 15.8132 157.705 16.1305 158.619 16.7651C159.534 17.3998 160.25 18.2695 160.771 19.373C161.291 20.4778 161.551 21.7153 161.551 23.0857V35.3084H158.505V23.3901C158.505 21.9939 158.162 20.8386 157.477 19.9254C156.792 19.0111 155.902 18.5551 154.811 18.5551H153.288C152.349 18.5551 151.517 18.8595 150.794 19.4694C150.07 20.0782 149.505 20.8785 149.1 21.8681C148.693 22.8577 148.491 23.899 148.491 24.9908V35.3096H145.445V8.65466H145.443Z" fill="#FFFFFF"/>
<path d="M167.928 26.5703C167.738 26.7866 167.667 27.0839 167.719 27.4647C167.973 28.9632 168.512 30.2442 169.338 31.3102C170.163 32.3761 171.234 32.9097 172.555 32.9097H174.041C175.183 32.9097 176.154 32.5477 176.954 31.8249C177.754 31.101 178.255 30.2066 178.459 29.1406H181.391C181.264 30.3089 180.87 31.3877 180.211 32.3773C179.551 33.3669 178.688 34.1543 177.622 34.7384C176.556 35.3225 175.375 35.614 174.081 35.614H172.52C171.048 35.614 169.689 35.1827 168.446 34.3188C167.201 33.4562 166.224 32.2621 165.513 30.739C164.802 29.2159 164.447 27.5023 164.447 25.5984C164.447 23.6945 164.834 22.0327 165.608 20.5342C166.383 19.0369 167.391 17.8758 168.636 17.0496C169.879 16.2245 171.162 15.812 172.481 15.812H174.081C175.502 15.812 176.784 16.2245 177.926 17.0496C179.069 17.8746 179.969 18.9723 180.629 20.3438C181.289 21.7142 181.619 23.1868 181.619 24.7604C181.619 25.2435 181.593 25.7383 181.543 26.246H168.749C168.393 26.246 168.12 26.3541 167.93 26.5692L167.928 26.5703ZM168.061 22.7437C168.061 23.0234 168.156 23.2385 168.347 23.3913C168.537 23.5441 168.797 23.6193 169.127 23.6193H177.276C177.605 23.6193 177.872 23.537 178.076 23.3713C178.279 23.2068 178.38 22.9846 178.38 22.7049C178.38 22.578 178.367 22.4769 178.342 22.4005C178.063 21.284 177.536 20.3579 176.762 19.621C175.987 18.8853 175.092 18.5163 174.077 18.5163H172.592C171.653 18.5163 170.776 18.8536 169.964 19.5258C169.151 20.1993 168.542 21.1312 168.136 22.3241C168.085 22.5275 168.06 22.6673 168.06 22.7425L168.061 22.7437Z" fill="#FFFFFF"/>
<path d="M187.578 34.32C186.321 33.4573 185.336 32.2703 184.627 30.7601C183.915 29.2499 183.561 27.5681 183.561 25.7147C183.561 23.8613 183.915 22.1795 184.627 20.6693C185.336 19.1591 186.321 17.9721 187.578 17.1095C188.834 16.2468 190.236 15.8143 191.785 15.8143H193.118C194.666 15.8143 196.069 16.2398 197.325 17.0895C198.582 17.9404 199.565 19.1203 200.276 20.6305C200.986 22.1408 201.342 23.8355 201.342 25.7136C201.342 27.5916 200.986 29.2875 200.276 30.7966C199.565 32.3068 198.587 33.4879 197.344 34.3376C196.099 35.1885 194.703 35.6128 193.155 35.6128H191.785C190.236 35.6128 188.834 35.1815 187.578 34.3176V34.32ZM195.707 31.9965C196.468 31.3877 197.077 30.5309 197.534 29.4262C197.992 28.3215 198.22 27.0839 198.22 25.7136C198.22 24.3432 197.992 23.1115 197.534 22.0197C197.077 20.9291 196.468 20.0723 195.707 19.4494C194.945 18.8277 194.107 18.5163 193.194 18.5163H191.747C190.833 18.5163 189.989 18.8206 189.215 19.4306C188.44 20.0394 187.83 20.8903 187.387 21.9821C186.943 23.0739 186.721 24.3185 186.721 25.7136C186.721 27.1086 186.943 28.3544 187.387 29.445C187.831 30.5368 188.44 31.3865 189.215 31.9965C189.989 32.6053 190.833 32.9109 191.747 32.9109H193.194C194.109 32.9109 194.945 32.6065 195.707 31.9965Z" fill="#FFFFFF"/>
<path d="M208.805 19.6409C208.221 20.238 207.777 20.9678 207.472 21.8304C207.168 22.6943 207.015 23.5311 207.015 24.3432V35.3095H203.969V16.1175H207.015V17.2599C207.015 17.4879 207.053 17.6594 207.129 17.7734C207.205 17.8874 207.306 17.945 207.433 17.945C207.637 17.945 207.852 17.8181 208.081 17.5643C208.462 17.0565 208.88 16.6887 209.337 16.4595C209.795 16.2315 210.39 16.1163 211.127 16.1163H213.565V18.7442H210.899C210.086 18.7442 209.389 19.0427 208.805 19.6386V19.6409Z" fill="#FFFFFF"/>
<path d="M220.114 39.6322C220.596 39.0857 220.945 38.4523 221.161 37.7283C221.376 37.0043 221.484 36.3767 221.484 35.8432C221.484 35.386 221.433 34.9359 221.332 34.4916C221.229 34.0474 221.052 33.4821 220.798 32.7969L214.668 16.1188H217.867L222.894 30.1702C223.021 30.4746 223.185 30.6274 223.388 30.6274C223.642 30.6274 223.807 30.4746 223.883 30.1702L228.796 16.1188H231.918L223.808 38.6615C223.274 40.1341 222.576 41.2376 221.714 41.9745C220.85 42.7102 219.797 43.0793 218.553 43.0793H216.459V40.4514H218.249C219.011 40.4514 219.632 40.1787 220.115 39.6322H220.114Z" fill="#FFFFFF"/>
</g>
<defs>
<clipPath id="clip0_122_1710">
<rect width="231.919" height="48" fill="white"/>
</clipPath>
</defs>
</svg>
