<svg width="62" height="15" viewBox="0 0 62 15" fill="none" xmlns="http://www.w3.org/2000/svg">
<path d="M23.3999 9.43565H23.0146C23.0149 9.33753 22.986 9.2561 22.9244 9.19967C22.8676 9.13767 22.7738 9.09704 22.6749 9.09808L21.9655 9.09647V4.1682L22.4798 4.74495C22.6804 4.95018 23.0283 4.80802 23.0283 4.52087V4.16016H23.3999V9.43565Z" fill="white"/>
<path d="M22.2836 4.53886V9.09659H10.6742C10.6742 9.09659 11.3529 12.4489 15.1178 12.4489C17.1881 12.4489 18.8819 11.0507 19.1084 9.83151H22.2836V11.3342L18.4009 15H11.6265L7.45026 10.7669V4.53886L11.9356 0.0214443H18.3189L22.2836 4.53886ZM14.9481 2.50779C12.2516 2.50779 10.4702 4.82365 10.4117 6.44468H19.5366C19.6357 5.0707 17.7522 2.508 14.9483 2.50779H14.9481Z" fill="white"/>
<path d="M3.30273 0.939535C3.30274 1.22662 3.65094 1.36919 3.85156 1.16414L4.96875 0.0205898H10.2588V0.939535C10.2588 1.2266 10.607 1.36911 10.8076 1.16414L11.9248 0.0205898H12.6592V2.87313H7.25781C4.88153 2.93746 3.29701 4.50249 3.29688 6.79696V14.9893H0V0.0205898H3.30273V0.939535Z" fill="white"/>
<path d="M7.83555 4.14983L7.87116 4.11386C8.32614 3.65425 8.00057 2.87385 7.35385 2.87385V2.43423H10.6857L8.55275 4.5708L7.83555 4.14983Z" fill="white"/>
<path d="M62.0002 4.22461V14.9688H58.7033V6.77637L58.6984 6.56348C58.6032 4.38555 57.0444 2.91486 54.7424 2.85254H54.5285L54.3078 2.8623C52.0545 3.01479 50.5677 4.55361 50.5676 6.77637V14.9688H47.2707V4.22461L51.3811 0H57.8899L62.0002 4.22461Z" fill="white"/>
<path d="M35.8383 8.21383L35.8432 8.42672C35.9386 10.6045 37.4973 12.0753 39.7993 12.1377H40.0131C42.3151 12.0753 43.8739 10.6045 43.9692 8.42672L43.9741 8.21383V0.0214443H47.271V10.7656L43.1606 14.9902H36.6518L32.5415 10.7656V0.0214443H35.8383V8.21383Z" fill="white"/>
<path d="M26.3175 0.939625C26.3175 1.22671 26.6657 1.36928 26.8663 1.16423L27.9835 0.0206795H35.6739V2.87322H32.5557V1.95134C32.5557 1.66428 32.2075 1.52174 32.0069 1.72673L30.8868 2.87322H30.2725C27.8963 2.93755 26.3117 4.50258 26.3116 6.79705V14.9894H23.0147V0.0206795H26.3175V0.939625Z" fill="white"/>
<path d="M47.2707 3.54468C47.3459 3.75363 47.6509 3.82807 47.8235 3.65145L47.934 3.53844H48.9192V12.7384H47.6099V12.4819H47.2707V11.5584C47.2707 11.2713 46.9151 11.1291 46.7145 11.3343L45.5931 12.4819H45.2799V12.7384H44.8301V3.53844L47.2707 3.54468Z" fill="white"/>
</svg>
