<svg width="793" height="182" viewBox="0 0 793 182" fill="none" xmlns="http://www.w3.org/2000/svg">
<path d="M31.3285 0H0.843262V178.819H111.436V152.702H31.3285V0Z" fill="white"/>
<path d="M161.758 81.4058H132.219V178.81H161.758V81.4058Z" fill="white"/>
<path d="M248.715 175.282L211.143 51.9912H181.604L221.069 178.814H276.361L315.826 51.9912H286.049L248.715 175.282Z" fill="white"/>
<path d="M389.107 49.1802C350.819 49.1802 326.482 76.4766 326.482 115.296C326.482 153.885 350.111 181.649 389.107 181.649C418.877 181.649 440.383 168.472 448.416 141.413H418.379C413.893 153.648 405.614 160.955 389.31 160.955C371.351 160.955 358.832 148.483 356.469 124.02H450.519C450.968 120.901 451.202 117.756 451.22 114.605C451.227 75.0598 426.651 49.1802 389.107 49.1802ZM356.701 103.529C359.778 80.7131 371.828 69.888 389.107 69.888C407.297 69.888 419.585 83.2955 421.008 103.529H356.701Z" fill="white"/>
<path d="M623.953 0H585.673L511.475 81.8822V0H480.99V178.819H511.475V88.4708L593.237 178.819H632.225L546.685 84.7019L623.953 0Z" fill="white"/>
<path d="M674.981 51.9912H645.442V149.396H674.981V51.9912Z" fill="white"/>
<path d="M132.222 51.9912H102.683V81.4024H132.222V51.9912Z" fill="white"/>
<path d="M704.527 149.406H674.989V178.818H704.527V149.406Z" fill="white"/>
<path d="M792.79 149.406H763.251V178.818H792.79V149.406Z" fill="white"/>
<path d="M792.786 81.4076V51.9965H763.247V0H733.708V51.9965H704.169V81.4076H733.708V149.408H763.247V81.4076H792.786Z" fill="white"/>
</svg>
